<svg xmlns="http://www.w3.org/2000/svg" fill="currentColor" viewBox="0 0 24 24">
  <path fill-rule="evenodd" d="m6.79 20.439 4.92-3.496a.5.5 0 0 1 .58 0l4.92 3.496a.5.5 0 0 0 .79-.408V7H6v13.031a.5.5 0 0 0 .79.408ZM6 4v-.5a.5.5 0 0 1 .5-.5h11a.5.5 0 0 1 .5.5V4H6Z" clip-rule="evenodd"/>
  <path d="m11.71 16.943.435.611-.435-.611Zm-4.92 3.496-.435-.611.435.611Zm5.5-3.496.434-.612-.434.612Zm4.92 3.496-.434.611.434-.611ZM18 7h.75v-.75H18V7ZM6 7v-.75h-.75V7H6Zm0-3h-.75v.75H6V4Zm12 0v.75h.75V4H18Zm-6.724 12.331-4.92 3.497.868 1.222 4.92-3.496-.868-1.223Zm1.448 0a1.25 1.25 0 0 0-1.448 0l.869 1.223a.25.25 0 0 1-.29 0l.869-1.223Zm4.92 3.497-4.92-3.497-.869 1.223 4.921 3.496.869-1.222Zm-.394.203a.25.25 0 0 1 .395-.203l-.869 1.222a1.25 1.25 0 0 0 1.974-1.019h-1.5ZM17.25 7v13.031h1.5V7h-1.5Zm.75-.75H6v1.5h12v-1.5ZM6.75 20.031V7h-1.5v13.031h1.5Zm-.395-.203a.25.25 0 0 1 .395.203h-1.5a1.25 1.25 0 0 0 1.974 1.02l-.869-1.223ZM6.75 4v-.5h-1.5V4h1.5Zm0-.5a.25.25 0 0 1-.25.25v-1.5c-.69 0-1.25.56-1.25 1.25h1.5Zm-.25.25h11v-1.5h-11v1.5Zm11 0a.25.25 0 0 1-.25-.25h1.5c0-.69-.56-1.25-1.25-1.25v1.5Zm-.25-.25V4h1.5v-.5h-1.5ZM6 4.75h12v-1.5H6v1.5Z"/>
</svg>
