<svg xmlns="http://www.w3.org/2000/svg" fill="none" viewBox="0 0 20 20"><path fill="currentColor" d="M9.997 6.54C8.161 6.54 6.663 8 6.663 9.785c0 1.787 1.498 3.245 3.334 3.245 1.837 0 3.335-1.458 3.335-3.245 0-1.786-1.498-3.245-3.335-3.245ZM20 9.785c0-1.343.013-2.675-.065-4.016-.077-1.558-.443-2.94-1.613-4.08C17.147.547 15.729.194 14.128.119 12.747.043 11.378.055 10 .055 8.62.055 7.25.043 5.872.12c-1.6.075-3.022.43-4.193 1.57C.506 2.83.143 4.21.066 5.769-.012 7.112 0 8.444 0 9.785c0 1.342-.013 2.676.065 4.017.077 1.558.443 2.94 1.613 4.08 1.174 1.141 2.592 1.494 4.193 1.57 1.381.075 2.75.063 4.128.063 1.38 0 2.75.012 4.128-.063 1.6-.076 3.022-.43 4.193-1.57 1.173-1.142 1.536-2.522 1.613-4.08.08-1.341.065-2.673.065-4.017ZM9.997 14.778c-2.839 0-5.13-2.23-5.13-4.993 0-2.763 2.291-4.992 5.13-4.992 2.84 0 5.132 2.23 5.132 4.992 0 2.763-2.292 4.993-5.132 4.993Zm5.342-9.024c-.663 0-1.199-.52-1.199-1.166 0-.645.536-1.166 1.199-1.166s1.198.521 1.198 1.166a1.138 1.138 0 0 1-.35.825 1.2 1.2 0 0 1-.848.341Z"/></svg>
