<svg xmlns="http://www.w3.org/2000/svg" fill="none" viewBox="0 0 29 22"><path fill="currentColor" d="M29 2.745c-1.078.43-2.228.715-3.426.853C26.807 2.93 27.748 1.88 28.19.613a12.63 12.63 0 0 1-3.77 1.307C23.329.865 21.774.21 20.077.21c-3.291 0-5.941 2.428-5.941 5.404 0 .428.04.84.137 1.232-4.942-.22-9.316-2.372-12.254-5.65a5.065 5.065 0 0 0-.814 2.73c0 1.87 1.06 3.529 2.641 4.489A6.33 6.33 0 0 1 1.16 7.75v.059c0 2.625 2.06 4.805 4.763 5.307a6.5 6.5 0 0 1-1.559.178c-.38 0-.764-.02-1.125-.092.77 2.139 2.956 3.712 5.555 3.763-2.023 1.437-4.59 2.303-7.371 2.303-.488 0-.955-.02-1.423-.074 2.634 1.543 5.755 2.424 9.12 2.424 10.94 0 16.922-8.233 16.922-15.37 0-.239-.01-.47-.022-.698A11.326 11.326 0 0 0 29 2.745Z"/></svg>
