<svg xmlns="http://www.w3.org/2000/svg" fill="currentColor" viewBox="0 0 20 18">
  <path d="m5.637 16.13.167.628-.167-.628Zm.341.029.265-.594-.265.594Zm-4.405 1.055.167.628-.167-.628Zm.768-4.01-.534.37.534-.37Zm.043.528.582.29-.582-.29ZM18.35 9c0 3.99-3.664 7.35-8.35 7.35v1.3c5.256 0 9.65-3.803 9.65-8.65h-1.3ZM10 1.65c4.686 0 8.35 3.36 8.35 7.35h1.3c0-4.847-4.394-8.65-9.65-8.65v1.3ZM1.65 9c0-3.99 3.664-7.35 8.35-7.35V.35C4.745.35.35 4.153.35 9h1.3Zm1.224 3.832C2.095 11.712 1.65 10.4 1.65 9H.35c0 1.683.537 3.252 1.457 4.574l1.067-.742Zm-1.296 3.966 1.388-2.776-1.163-.581-1.388 2.776 1.163.581Zm3.892-1.296-4.065 1.084.335 1.256 4.064-1.084-.334-1.256Zm4.53.848a9.24 9.24 0 0 1-3.757-.785l-.529 1.188c1.294.575 2.75.897 4.286.897v-1.3Zm-4.196.408a.135.135 0 0 1-.09-.005l.529-1.188a1.165 1.165 0 0 0-.773-.063l.334 1.256Zm-5.389-.541c-.443.886.368 1.88 1.325 1.625l-.335-1.256a.15.15 0 0 1 .173.212l-1.163-.581Zm1.392-2.643a.13.13 0 0 1-.004-.133l1.163.581a1.17 1.17 0 0 0-.092-1.19l-1.067.742Z"/>
</svg>
