<svg xmlns="http://www.w3.org/2000/svg" fill="none" viewBox="0 0 16 16"><path fill="currentColor" fill-rule="evenodd" d="M14.666 7.64c0 3.477-2.984 6.296-6.666 6.296-.82 0-1.607-.14-2.332-.396a.52.52 0 0 0-.316-.011l-2.965.847a.5.5 0 0 1-.59-.692l.854-1.83a.525.525 0 0 0-.065-.54A6.036 6.036 0 0 1 1.333 7.64c0-3.477 2.985-6.296 6.667-6.296s6.666 2.819 6.666 6.296ZM6.504 9.181A4.527 4.527 0 0 0 9.7 10.507a1.508 1.508 0 0 0 1.046-.416c.392-.374.1-.96-.385-1.202l-.19-.095a.833.833 0 0 0-.834.052l-.513.342a.51.51 0 0 1-.477.048 3.546 3.546 0 0 1-1.894-1.894.51.51 0 0 1 .047-.477l.342-.512a.832.832 0 0 0 .053-.833L6.8 5.328c-.241-.484-.826-.777-1.201-.386a1.512 1.512 0 0 0-.42 1.044A4.527 4.527 0 0 0 6.504 9.18Z" clip-rule="evenodd"/></svg>
