<svg xmlns="http://www.w3.org/2000/svg" fill="none" viewBox="0 0 24 24"><path fill="#6B7280" d="M4 4v-.65H2.717l.759 1.034L4 4Zm11.733 16-.524.384.195.266h.329V20ZM20 20v.65h1.283l-.759-1.034L20 20ZM8.267 4l.524-.384-.195-.266h-.329V4ZM3.54 19.54l-.46.46.92.92.46-.46-.92-.92Zm7.688-5.848a.65.65 0 1 0-.92-.92l.92.92Zm1.54-3.38a.65.65 0 1 0 .92.92l-.92-.92ZM20.46 4.46l.46-.46-.92-.92-.46.46.92.92ZM3.476 4.384l11.733 16 1.048-.768-11.733-16-1.048.768ZM15.733 20.65H20v-1.3h-4.267v1.3Zm4.791-1.034-11.733-16-1.048.768 11.733 16 1.048-.768ZM8.267 3.35H4v1.3h4.267v-1.3ZM4.46 20.46l6.768-6.768-.92-.92L3.54 19.54l.92.92Zm9.228-9.228L20.46 4.46l-.92-.92-6.772 6.772.92.92Z"/></svg>