<svg xmlns="http://www.w3.org/2000/svg" fill="none" viewBox="0 0 24 16"><path fill="currentColor" d="M23.5 2.749a2.699 2.699 0 0 0-.765-1.236 3.074 3.074 0 0 0-1.338-.722C19.519.31 11.995.31 11.995.31a78.726 78.726 0 0 0-9.39.457c-.502.135-.962.39-1.338.74-.37.346-.638.773-.778 1.241A27.566 27.566 0 0 0 0 8.094c-.012 1.791.15 3.58.488 5.346.137.466.404.891.775 1.235a3.12 3.12 0 0 0 1.34.723c1.904.48 9.39.48 9.39.48 3.141.035 6.281-.117 9.403-.457a3.075 3.075 0 0 0 1.338-.722c.37-.343.633-.77.765-1.236.345-1.762.512-3.553.5-5.347.027-1.801-.141-3.6-.5-5.368v.001ZM9.604 11.426V4.763l6.26 3.332-6.26 3.33Z"/></svg>
